# xmcd
#
# Track frame offsets: 
#        150
#        17656
#        37741
#        50571
#        73144
#        93356
#        109364
#        120734
#        139225
#        163845
#        199591
#        221693
#
# Disc length: 3373 seconds
#
# Revision: 0
# Processed by: cddbd v1.5.2PL0 Copyright (c) Steve Scherf et al.
# Submitted via: ExactAudioCopy v0.99pb3
#
DISCID=ae0d2b0c
DTITLE=Graná Louise - Gettin' Kinda Rough
DYEAR=2011
DGENRE=Blues
TTITLE0=Stagger Lee
TTITLE1=Lead Foot Mama
TTITLE2=Where You Been
TTITLE3=Learning How To Cheat On You
TTITLE4=Big Dick, M'isipi
TTITLE5=Bang Bang Ba-Bang Bang Bang Bang!
TTITLE6=Gonna Get 'Cha
TTITLE7=Wet Match
TTITLE8=Queen Bee
TTITLE9=Back Door Blues
TTITLE10=I Can't Stand The Rain
TTITLE11=Hey Joe
EXTD=
EXTT0=
EXTT1=
EXTT2=
EXTT3=
EXTT4=
EXTT5=
EXTT6=
EXTT7=
EXTT8=
EXTT9=
EXTT10=
EXTT11=
PLAYORDER=
